<?xml version="1.0" encoding="iso-8859-1"?>
<!-- Uploaded to: SVG Repo, www.svgrepo.com, Generator: SVG Repo Mixer Tools -->
<svg height="800px" width="800px" version="1.1" id="Layer_1" xmlns="http://www.w3.org/2000/svg" xmlns:xlink="http://www.w3.org/1999/xlink" 
	 viewBox="0 0 512 512" xml:space="preserve">
<g>
	<g>
		<path style="fill:#E8EDEE;" d="M136.533,358.4c-32.939,0-59.733-26.803-59.733-59.733c0-4.719,3.823-8.533,8.533-8.533
			c4.71,0,8.533,3.814,8.533,8.533c0,23.526,19.14,42.667,42.667,42.667c4.71,0,8.533,3.814,8.533,8.533
			C145.067,354.586,141.244,358.4,136.533,358.4"/>
		<path style="fill:#E8EDEE;" d="M256,34.133c-4.71,0-8.533-3.814-8.533-8.533V8.533C247.467,3.814,251.29,0,256,0
			c4.71,0,8.533,3.814,8.533,8.533V25.6C264.533,30.319,260.71,34.133,256,34.133"/>
		<path style="fill:#E8EDEE;" d="M375.467,358.4c-4.71,0-8.533-3.814-8.533-8.533c0-4.719,3.823-8.533,8.533-8.533
			c23.526,0,42.667-19.14,42.667-42.667c0-4.719,3.823-8.533,8.533-8.533s8.533,3.814,8.533,8.533
			C435.2,331.597,408.405,358.4,375.467,358.4"/>
		<path style="fill:#E8EDEE;" d="M256,324.267c-4.71,0-8.533-3.814-8.533-8.533v-25.6c0-4.719,3.823-8.533,8.533-8.533
			c4.71,0,8.533,3.814,8.533,8.533v25.6C264.533,320.452,260.71,324.267,256,324.267"/>
		<path style="fill:#E8EDEE;" d="M256,162.133c-4.71,0-8.533-3.814-8.533-8.533v-34.133c0-4.719,3.823-8.533,8.533-8.533
			c4.71,0,8.533,3.814,8.533,8.533V153.6C264.533,158.319,260.71,162.133,256,162.133"/>
	</g>
	<path style="fill:#F30043;" d="M315.733,119.467H196.267V85.333c0-32.99,26.743-59.733,59.733-59.733s59.733,26.743,59.733,59.733
		V119.467z"/>
	<path style="fill:#C7D6D8;" d="M230.4,460.8h51.2v-42.667h-51.2V460.8z"/>
	<path style="fill:#F30043;" d="M341.333,384H170.667c-18.85,0-34.133-15.283-34.133-34.133c0-18.85,15.283-34.133,34.133-34.133
		h170.667c18.85,0,34.133,15.283,34.133,34.133C375.467,368.717,360.183,384,341.333,384"/>
	<path style="fill:#E8EDEE;" d="M238.933,418.133h34.133V384h-34.133V418.133z"/>
	<g>
		<path style="fill:#F30043;" d="M102.4,298.667H68.267c-14.14,0-25.6-11.46-25.6-25.6s11.46-25.6,25.6-25.6H102.4
			c14.14,0,25.6,11.46,25.6,25.6S116.54,298.667,102.4,298.667"/>
		<path style="fill:#F30043;" d="M409.6,298.667h34.133c14.14,0,25.6-11.46,25.6-25.6s-11.46-25.6-25.6-25.6H409.6
			c-14.14,0-25.6,11.46-25.6,25.6S395.46,298.667,409.6,298.667"/>
	</g>
	<path style="fill:#E8EDEE;" d="M307.2,503.467H204.8c0-23.561,19.106-42.667,42.667-42.667h17.067
		C288.094,460.8,307.2,479.906,307.2,503.467"/>
	<path style="fill:#F30043;" d="M358.4,290.133H153.6v-76.817c0-32.981,26.735-59.716,59.716-59.716h85.367
		c32.981,0,59.716,26.735,59.716,59.716V290.133z"/>
	<path style="fill:#434C6D;" d="M366.933,512H145.067c-4.71,0-8.533-3.814-8.533-8.533c0-4.719,3.823-8.533,8.533-8.533h221.867
		c4.71,0,8.533,3.814,8.533,8.533C375.467,508.186,371.644,512,366.933,512"/>
</g>
</svg>